<svg xmlns="http://www.w3.org/2000/svg" width="143" height="54" viewBox="0 0 143 54">
  <path fill="#A29061" fill-rule="evenodd" d="M25.087 0C38.94 0 50.173 11.13 50.173 24.858c0 8.83-4.648 16.585-11.651 20.995v-8.585c3.06-3.25 4.933-7.614 4.933-12.41 0-10.053-8.224-18.202-18.368-18.202-6.9 0-12.911 3.77-16.051 9.346 3.512-1.78 7.975-2.969 13.634-2.969 7.784 0 14.257 3.506 14.257 12.216v22.093c0 .804.227 1.275.763 1.914.49.582 3.829 3.953 4.397 4.526l.083.083H34.3s-2.224-2.117-3.683-3.562c-.324-.323-.443-.848-.443-2.157v-21.41c0-7.01-5.36-10.54-10.828-10.54-4.718 0-8.497.957-11.512 2.399-.22.594-.408 1.204-.566 1.827 2.939-1.589 6.544-2.694 10.886-2.694 7.023 0 10.424 3.453 10.424 9.325v26.812h-6.753V28.861c0-4.175-2.812-7.778-8.28-7.778-2.521 0-4.73.463-6.643 1.194-.073.51-.125 1.026-.154 1.547a18.688 18.688 0 0 1 6.614-1.206c3.732 0 6.867 2.037 6.867 6.181v19.347c0 1.309-.12 1.834-.444 2.157a317.695 317.695 0 0 1-3.684 3.562H8.232s3.945-3.972 4.48-4.61c.536-.638.763-1.109.763-1.913V30.798c0-3.505-2.266-5.576-5.393-5.576-.453 0-.908.04-1.358.114.124 4.72 2.06 8.995 5.148 12.162v8.492C5.71 42.198 1.328 35.836.256 28.414a25.568 25.568 0 0 1-.208-2.007c-.028-.463-.044-.93-.047-1.4L0 24.857c0-.281.006-.56.016-.839C.461 10.68 11.514 0 25.086 0zm58.585 33.793c.97 0 1.392.272 1.643.634.274.383.274.644.274 1.934h-.947l-.001-.371c-.002-.343-.01-.6-.045-.76-.069-.318-.274-.6-.868-.6-.958 0-.992.656-1.027 1.312-.022.44-.045 2.103-.045 2.703 0 .622.034 1.006.057 1.515.011.328.057 1.03.902 1.03.296 0 .593-.103.81-.317.182-.193.297-.385.297-1.426v-.814h-1.187v-.86h2.123v4.13h-.845v-.556c-.252.25-.662.668-1.484.668-.365 0-1.118-.136-1.45-.928l-.029-.075c-.116-.307-.193-.702-.199-2.567v-.241c0-1.21.046-2.455.08-2.738.091-.768.422-1.673 1.94-1.673zm-23.5.113l1.13 7.136 1.107-7.136h1.53v7.996h-.925l.136-7.221-1.198 7.221h-1.267l-1.21-7.227.16 7.227h-.97v-7.996h1.507zm30.165.011v7.09H92.7v.895h-3.378v-7.985h1.015zm13.764 0v7.985h-.994v-7.985h.994zm8.96 0v.893h-2.534v2.376h2.226v.905h-2.226v2.917h2.625v.894h-3.63v-7.985h3.54zm-18.467 0v7.985H93.6v-7.985h.993zm-19.962 0v7.985h-.993v-7.985h.993zm23.09-.01l1.13 7.135 1.107-7.136h1.528v7.996h-.924l.137-7.221-1.198 7.221h-1.267l-1.21-7.227.16 7.227h-.97v-7.996h1.506zm11.116.01v.893h-1.53v7.092h-.993V34.81h-1.53v-.893h4.053zm8.948.6c.36.443.406.845.41 2.572v.56c-.001.38-.005.874-.022 1.709-.01.78-.034 1.345-.32 1.82-.457.724-1.21.724-2.077.724h-1.496v-7.985h1.519c.787 0 1.506 0 1.986.6zm-48.233-.61l1.633 7-.137-7h.97v7.995h-1.416L69.03 34.98l.136 6.922h-.981v-7.996h1.37zm-3.001.01v7.985h-.993v-7.985h.993zm11.082-.01l1.632 7-.137-7h.97v7.995h-1.414l-1.576-6.922.137 6.922h-.982v-7.996h1.37zm37.652.926v6.187h.651c.639 0 1.095-.057 1.21-.77.051-.335.065-1.275.068-1.765v-.831c-.002-.33-.004-.62-.01-1.102-.014-.871-.024-1.3-.378-1.55-.251-.169-.48-.169-1.541-.169zM98.92 13.092c3.892 0 4.065 2.189 4.073 3.3v2.44h-2.737V16.94c0-1.115-.19-1.745-1.4-1.745-1.155 0-1.265.862-1.273 1.526v8.04c0 .884.148 1.683 1.38 1.683 1.183 0 1.284-.775 1.292-1.599v-2.164h2.739v2.266c-.008 1.255-.178 3.62-4.074 3.62-.787 0-2.037-.146-2.908-.714-1.125-.737-1.185-1.814-1.188-2.623v-8.206c0-1.199.063-2.019.743-2.754 1.082-1.157 2.78-1.178 3.353-1.178zm30.973 0c1.613 0 3.82.652 3.82 3.196v1.472h-2.738v-1.073c0-.714 0-1.514-1.208-1.514-.744 0-1.275.274-1.275 1.472 0 1.241.276 1.514.87 1.914l2.717 1.83c.53.378 1.103.903 1.421 1.45.377.628.402 1.073.404 2.104v.23c0 1.325 0 2.145-.488 2.922-.828 1.326-2.546 1.472-3.565 1.472-2.355 0-4.16-.883-4.16-3.385v-2.165h2.76v1.724c0 .862 0 1.724 1.336 1.724 1.359 0 1.359-.883 1.359-2.208 0-1.051-.214-1.493-.934-1.976l-2.632-1.745c-1.4-.947-1.782-1.977-1.782-3.491 0-1.156.105-2.271 1.081-3.07.553-.463 1.571-.883 3.014-.883zm-52.469.294v2.271h-4.5v3.49h4.224v2.25h-4.223v4.563h4.69v2.292h-7.448V13.386h7.257zm-15.215.021L64.904 24.3l-.275-10.892h2.524v14.845h-3.48L61 17.13l.255 11.123h-2.59V13.407h3.544zm48.718-.02c2.537 0 2.686 1.582 2.695 2.908v1.843c0 1.893-.593 2.229-1.93 2.524.658.168 2.037.568 2.037 2.565v3.028c0 .757.064 1.535.636 1.997h-3.034c-.318-.568-.404-1.197-.404-1.64v-3.175c0-1.01 0-1.724-1.442-1.724h-1.316v6.54h-2.759V13.385h5.517zm-29.43.02l1.508 11.187 1.634-11.187h2.61l1.57 11.187 1.57-11.187h2.802l-2.887 14.845h-2.907l-1.421-10.114-1.635 10.114h-2.949l-2.737-14.845h2.842zm61.446 0v2.145h-2.76v12.7h-2.778v-12.7h-2.758v-2.145h8.296zm-19.35-.02v2.27h-4.499v3.49h4.223v2.25h-4.223v4.563h4.69v2.292h-7.448V13.386h7.257zM109.7 15.53h-1.531v4.058h1.443c1.195 0 1.269-.613 1.273-1.327v-1.511c0-1.162-.597-1.217-1.185-1.22z"></path>
</svg>
